<svg version="1.0" xmlns="http://www.w3.org/2000/svg"
 width="849.000000pt" height="857.000000pt" viewBox="0 0 849.000000 857.000000"
 preserveAspectRatio="xMidYMid meet">

<g transform="translate(0.000000,857.000000) scale(0.100000,-0.100000)"
fill="#000000" stroke="none">
<path d="M3934 8441 c-161 -9 -209 -14 -320 -36 -40 -8 -124 -19 -188 -25 -65
-6 -132 -16 -151 -24 -18 -8 -65 -19 -105 -25 -39 -6 -81 -18 -93 -26 -13 -8
-52 -21 -88 -28 -35 -7 -76 -21 -89 -29 -14 -9 -41 -19 -60 -23 -19 -4 -48
-15 -65 -25 -16 -10 -45 -21 -64 -25 -19 -4 -54 -18 -79 -31 -25 -13 -50 -24
-57 -24 -7 0 -23 -8 -36 -19 -13 -10 -42 -24 -64 -31 -22 -7 -47 -18 -55 -25
-8 -6 -31 -18 -50 -25 -19 -7 -41 -18 -49 -24 -17 -14 -81 -48 -143 -77 -27
-12 -48 -25 -48 -29 0 -4 -17 -15 -37 -24 -34 -15 -88 -49 -119 -75 -6 -5 -26
-17 -45 -26 -19 -10 -57 -38 -85 -61 -28 -24 -54 -44 -58 -44 -8 0 -137 -100
-173 -134 -13 -12 -35 -31 -50 -44 -194 -158 -435 -391 -476 -459 -10 -18 -23
-33 -28 -33 -5 0 -12 -8 -16 -17 -3 -10 -14 -27 -24 -38 -37 -40 -77 -91 -113
-145 -21 -30 -45 -63 -54 -72 -20 -19 -50 -62 -94 -133 -58 -93 -75 -120 -94
-149 -10 -16 -27 -43 -38 -60 -10 -17 -27 -41 -37 -55 -10 -13 -19 -29 -19
-36 0 -6 -9 -20 -19 -29 -11 -10 -23 -31 -26 -47 -4 -15 -14 -38 -24 -51 -9
-13 -23 -39 -31 -58 -7 -19 -19 -42 -26 -50 -6 -8 -17 -32 -23 -54 -5 -21 -16
-46 -24 -55 -8 -9 -22 -40 -32 -70 -9 -29 -24 -65 -31 -80 -8 -14 -14 -34 -14
-44 0 -10 -14 -55 -31 -100 -62 -166 -68 -183 -79 -242 -7 -33 -17 -69 -22
-79 -22 -41 -68 -274 -83 -414 -8 -81 -20 -165 -26 -187 -15 -55 -23 -674 -11
-800 6 -55 17 -152 26 -215 8 -63 19 -146 24 -185 10 -72 37 -190 72 -305 11
-36 22 -83 26 -105 3 -22 14 -62 24 -90 10 -27 25 -70 33 -95 9 -25 27 -76 42
-115 15 -38 33 -88 41 -110 8 -22 23 -58 33 -80 19 -39 67 -143 118 -255 14
-30 29 -62 34 -70 5 -8 18 -31 28 -51 11 -19 27 -41 35 -48 9 -8 16 -18 16
-23 0 -13 85 -155 119 -198 15 -19 34 -46 41 -60 7 -14 32 -49 54 -79 23 -29
46 -60 51 -69 6 -8 19 -25 30 -37 11 -13 30 -36 42 -52 22 -29 126 -157 166
-204 12 -15 40 -49 62 -75 48 -58 159 -169 205 -204 19 -14 45 -36 59 -50 14
-13 73 -61 131 -107 58 -45 114 -90 125 -100 11 -10 27 -22 36 -28 26 -15 149
-108 170 -128 11 -9 22 -17 26 -17 4 0 38 -21 76 -47 38 -27 77 -52 86 -58 9
-5 29 -19 46 -30 41 -27 83 -51 125 -70 57 -26 74 -34 90 -45 8 -5 31 -16 50
-25 19 -8 42 -19 50 -24 8 -5 47 -23 85 -41 39 -17 88 -40 110 -50 22 -11 65
-28 95 -38 30 -11 91 -34 135 -52 44 -17 106 -38 138 -46 32 -8 70 -20 85 -28
15 -7 54 -17 87 -21 32 -4 86 -15 120 -25 33 -10 103 -23 155 -29 52 -7 129
-18 170 -26 240 -45 975 -46 1156 -1 33 8 111 20 174 26 63 6 140 19 170 30
30 10 75 21 100 25 25 3 68 15 95 25 28 10 73 21 100 25 28 4 66 15 85 25 47
24 189 80 201 80 10 0 62 23 174 75 28 13 61 27 75 30 14 4 32 13 40 19 14 12
107 59 180 91 19 9 53 27 75 40 22 14 56 33 75 42 20 10 42 24 50 30 25 21
121 83 129 83 5 0 17 8 28 18 12 9 58 44 102 77 143 105 205 152 241 184 19
17 48 41 64 53 16 13 39 33 51 46 12 12 40 36 61 53 79 62 172 157 259 264 27
33 57 69 67 80 85 94 113 127 146 173 20 30 55 77 78 105 22 29 57 79 79 112
21 33 51 79 66 102 16 23 29 45 29 51 0 5 9 17 20 27 11 10 20 23 20 28 0 6
11 25 25 43 14 18 25 37 25 42 0 5 9 21 20 35 11 14 27 45 35 68 9 24 22 50
29 59 7 8 19 32 25 52 7 20 18 42 26 48 7 6 17 26 20 43 4 18 29 76 56 129 27
53 49 103 49 110 0 8 9 31 20 53 11 21 27 63 35 93 9 30 22 64 30 76 7 12 16
41 20 66 3 25 15 72 25 105 10 33 24 85 31 115 6 30 17 66 24 80 7 14 18 83
25 154 7 70 16 142 21 160 16 53 40 432 40 630 0 202 -13 396 -37 566 -8 58
-21 159 -29 225 -12 106 -26 164 -67 280 -5 17 -18 65 -27 107 -10 42 -22 83
-28 90 -12 15 -55 134 -79 218 -8 30 -21 61 -28 70 -7 8 -19 31 -26 50 -7 19
-19 42 -25 50 -7 8 -18 32 -25 53 -6 21 -31 73 -54 115 -24 42 -46 88 -51 101
-4 12 -18 39 -31 58 -13 20 -24 41 -24 48 0 7 -7 18 -16 26 -9 7 -23 30 -31
51 -8 21 -18 38 -22 38 -3 0 -24 30 -46 66 -22 36 -62 97 -90 135 -27 38 -72
101 -100 141 -67 94 -198 253 -297 358 -44 47 -83 88 -86 93 -38 42 -319 288
-362 315 -21 14 -114 88 -239 192 -13 11 -29 20 -34 20 -6 0 -25 11 -43 25
-18 14 -37 25 -43 25 -6 0 -19 8 -29 18 -25 24 -101 76 -137 94 -16 8 -39 19
-50 25 -11 6 -74 36 -140 68 -121 57 -153 73 -190 92 -19 10 -79 35 -195 83
-30 12 -80 29 -109 37 -30 8 -64 21 -75 28 -12 7 -48 18 -81 25 -33 7 -69 18
-80 24 -11 7 -51 19 -89 25 -38 7 -84 18 -103 26 -18 8 -88 19 -155 25 -68 6
-149 17 -180 25 -124 31 -632 51 -924 36z m776 -161 c19 -6 82 -20 140 -30
210 -38 477 -99 570 -130 30 -11 71 -22 90 -25 19 -4 49 -15 66 -25 17 -9 48
-23 70 -30 21 -7 48 -19 59 -26 11 -8 29 -14 40 -14 12 0 52 -16 91 -35 38
-19 74 -35 80 -35 6 0 17 -6 23 -14 7 -8 24 -17 39 -21 45 -11 240 -111 271
-139 10 -9 22 -16 28 -16 5 0 18 -9 28 -20 10 -12 37 -29 59 -40 23 -11 61
-35 86 -55 25 -19 59 -42 75 -51 17 -9 34 -23 38 -30 4 -8 13 -14 18 -14 6 0
27 -14 47 -30 20 -17 66 -52 102 -80 36 -27 89 -71 118 -97 30 -26 64 -57 76
-68 12 -11 53 -48 92 -81 38 -34 114 -113 169 -175 55 -62 109 -122 120 -134
11 -12 36 -44 55 -71 19 -27 63 -83 98 -124 35 -41 73 -93 84 -115 11 -22 27
-47 34 -55 33 -36 61 -77 73 -107 7 -18 20 -38 28 -44 8 -7 21 -26 28 -43 8
-17 28 -53 45 -81 39 -65 110 -207 110 -220 0 -5 20 -50 45 -98 25 -49 50
-107 56 -130 6 -23 17 -49 24 -57 7 -8 18 -33 25 -55 7 -22 19 -49 26 -60 7
-11 20 -50 28 -85 8 -36 31 -128 51 -205 20 -77 45 -185 55 -240 10 -55 25
-131 33 -170 9 -38 21 -119 27 -180 6 -60 15 -159 21 -220 13 -129 6 -531 -11
-655 -21 -152 -39 -264 -49 -305 -6 -22 -19 -87 -31 -145 -32 -167 -114 -477
-131 -494 -5 -6 -9 -17 -9 -26 0 -9 -11 -39 -25 -66 -14 -27 -32 -74 -40 -104
-14 -54 -133 -300 -181 -372 -48 -74 -91 -148 -124 -213 -12 -22 -36 -60 -55
-85 -19 -25 -42 -58 -51 -75 -9 -16 -33 -50 -53 -75 -20 -25 -52 -67 -71 -93
-108 -149 -343 -400 -538 -573 -24 -21 -65 -58 -91 -83 -25 -26 -66 -57 -89
-71 -24 -14 -70 -46 -102 -73 -32 -26 -61 -47 -66 -47 -4 0 -23 -12 -43 -27
-47 -36 -80 -58 -169 -113 -40 -25 -96 -59 -125 -77 -29 -18 -59 -35 -67 -39
-8 -3 -37 -17 -65 -30 -27 -13 -66 -30 -85 -38 -19 -9 -42 -20 -50 -25 -37
-24 -149 -70 -183 -76 -20 -4 -39 -11 -42 -15 -3 -5 -29 -16 -58 -26 -28 -9
-59 -23 -67 -30 -9 -7 -43 -20 -75 -28 -33 -7 -73 -19 -90 -26 -16 -6 -59 -17
-95 -25 -36 -8 -83 -20 -105 -28 -36 -13 -102 -26 -505 -99 -115 -21 -154 -23
-480 -23 -383 0 -334 -4 -670 61 -209 41 -465 101 -489 114 -11 5 -53 17 -93
25 -40 9 -82 22 -93 29 -11 7 -38 19 -60 26 -22 7 -56 21 -75 31 -19 11 -41
19 -49 19 -13 0 -70 25 -186 80 -22 11 -56 26 -75 35 -52 22 -200 104 -228
126 -14 10 -30 19 -37 19 -7 0 -19 7 -26 17 -8 9 -33 24 -55 35 -23 10 -47 25
-54 33 -7 8 -18 15 -25 15 -7 0 -18 7 -26 16 -7 8 -29 24 -48 34 -20 10 -56
37 -80 59 -24 23 -47 41 -50 41 -3 0 -21 14 -40 30 -18 16 -49 42 -69 57 -19
15 -47 39 -62 53 -15 14 -52 45 -81 70 -84 70 -222 209 -291 292 -35 42 -94
112 -133 156 -107 122 -222 277 -297 397 -59 95 -75 120 -100 160 -14 22 -30
57 -37 77 -7 21 -17 40 -22 43 -10 7 -73 137 -84 175 -4 14 -16 36 -26 49 -11
13 -19 31 -19 40 0 9 -12 39 -25 66 -14 28 -25 57 -25 65 0 8 -9 31 -19 51
-11 20 -25 56 -31 80 -6 24 -18 54 -25 65 -8 12 -21 52 -30 90 -8 37 -19 72
-24 78 -5 6 -15 38 -22 71 -7 33 -18 72 -26 87 -7 15 -20 78 -29 140 -8 62
-20 124 -25 137 -23 56 -65 644 -55 779 4 54 11 165 16 247 5 83 16 186 25
230 9 44 25 143 35 220 17 131 43 236 76 314 8 18 21 61 29 95 12 57 47 153
80 221 8 17 19 52 25 80 6 27 19 63 29 80 10 16 22 41 26 55 4 14 13 32 20 40
7 8 18 31 24 50 6 19 27 64 46 100 18 36 41 81 51 100 9 19 20 42 25 50 5 8
20 36 34 63 14 26 30 47 35 47 6 0 10 6 10 13 0 14 59 111 83 139 9 9 21 27
28 40 11 21 46 67 83 108 7 8 19 25 25 38 7 13 19 31 27 40 8 9 53 64 101 122
47 57 95 115 107 128 49 56 300 302 307 302 4 0 14 6 22 14 15 16 158 136 197
167 170 133 231 179 238 179 5 0 15 7 22 15 7 8 32 24 55 34 23 10 46 24 49
30 4 6 23 18 42 26 19 8 54 30 77 48 23 19 78 51 122 71 44 20 98 45 120 56
114 53 175 80 182 80 5 0 25 9 45 20 20 11 58 25 85 32 26 6 62 19 78 29 17 9
50 20 75 24 24 4 62 15 85 25 22 9 69 22 105 29 36 7 90 19 120 27 30 9 86 22
125 29 73 14 237 46 340 67 33 6 112 15 175 19 161 10 747 1 790 -11z"/>
<path d="M4030 8054 c-93 -7 -360 -44 -460 -64 -52 -11 -115 -22 -140 -25 -25
-4 -72 -15 -105 -25 -33 -10 -80 -22 -105 -26 -25 -3 -61 -14 -80 -24 -19 -9
-52 -20 -72 -24 -21 -4 -62 -18 -90 -31 -29 -14 -60 -25 -68 -25 -8 0 -28 -7
-43 -15 -16 -8 -59 -24 -97 -35 -37 -11 -73 -27 -80 -34 -6 -8 -24 -18 -40
-21 -16 -3 -34 -13 -40 -20 -6 -8 -28 -19 -48 -26 -20 -6 -48 -18 -62 -27 -33
-22 -77 -46 -120 -68 -19 -10 -68 -40 -108 -66 -40 -26 -75 -48 -79 -48 -10 0
-108 -64 -111 -72 -2 -5 -29 -24 -60 -45 -32 -20 -66 -42 -77 -50 -11 -7 -36
-24 -55 -37 -100 -67 -498 -465 -545 -545 -5 -10 -15 -24 -22 -32 -46 -54 -72
-87 -82 -107 -7 -13 -19 -31 -28 -40 -27 -30 -127 -168 -151 -208 -82 -136
-128 -218 -159 -279 -20 -38 -41 -77 -48 -85 -7 -8 -16 -26 -20 -40 -4 -14
-17 -47 -30 -75 -13 -27 -35 -84 -50 -125 -15 -41 -38 -97 -51 -125 -58 -129
-73 -168 -80 -212 -4 -27 -14 -68 -24 -93 -9 -25 -23 -81 -30 -125 -6 -44 -18
-94 -25 -111 -7 -18 -19 -83 -25 -145 -7 -63 -19 -132 -27 -154 -41 -117 -43
-824 -2 -952 6 -18 19 -99 29 -180 11 -82 33 -197 49 -258 17 -60 38 -139 47
-175 8 -36 26 -93 40 -128 13 -34 24 -68 24 -75 0 -7 8 -28 19 -47 10 -19 22
-46 26 -60 4 -14 18 -49 31 -77 13 -29 35 -77 48 -105 13 -29 27 -64 31 -78 4
-14 13 -32 20 -40 6 -8 18 -31 25 -50 7 -19 19 -42 26 -50 6 -8 19 -31 28 -50
9 -19 35 -63 59 -97 23 -34 57 -86 75 -115 26 -45 144 -201 194 -258 7 -8 31
-39 53 -68 22 -29 61 -76 87 -105 26 -29 48 -55 48 -59 0 -22 354 -355 420
-396 25 -16 61 -42 80 -58 19 -16 62 -48 95 -69 33 -22 80 -56 105 -76 25 -19
59 -41 77 -48 18 -7 38 -19 44 -27 6 -8 44 -32 84 -54 40 -22 78 -47 85 -55 7
-8 16 -15 21 -15 5 0 26 -10 47 -23 20 -13 53 -30 72 -37 19 -8 66 -31 104
-52 38 -21 73 -38 78 -38 5 0 37 -13 71 -29 34 -15 79 -32 101 -35 21 -4 55
-16 75 -27 20 -10 43 -19 51 -19 8 0 32 -9 53 -20 21 -12 77 -27 125 -36 48
-8 110 -21 137 -29 245 -71 542 -100 920 -92 149 4 322 11 385 17 124 12 333
50 445 81 39 11 90 24 115 29 42 8 102 27 225 70 28 10 70 25 95 33 84 28 175
65 215 86 21 12 44 21 51 21 6 0 17 7 24 15 7 8 31 20 54 27 22 7 56 23 75 35
19 13 39 23 46 23 7 0 18 7 25 15 7 9 50 36 95 61 46 24 88 51 95 59 7 8 18
15 25 15 6 0 31 14 53 30 23 17 44 30 46 30 3 0 16 10 30 22 35 33 56 50 91
74 104 71 154 109 270 208 72 61 134 116 138 123 8 13 125 147 251 286 33 38
64 78 68 89 5 11 30 45 56 76 27 31 52 64 56 72 3 8 22 35 41 60 19 25 44 64
54 86 11 23 35 64 53 90 44 64 81 126 136 229 60 115 172 368 172 390 0 8 11
37 24 63 13 26 26 65 30 87 7 41 30 124 71 257 27 88 65 313 92 538 26 226 24
563 -5 775 -49 357 -89 555 -135 665 -8 19 -18 55 -22 80 -7 45 -53 173 -79
220 -8 14 -17 41 -21 60 -7 35 -13 51 -104 242 -28 59 -51 111 -51 116 0 5
-34 60 -76 123 -42 63 -80 124 -85 137 -5 13 -20 38 -34 56 -14 18 -25 37 -25
42 0 5 -9 15 -20 22 -11 7 -20 17 -20 24 0 6 -8 20 -17 30 -10 11 -26 34 -38
53 -48 78 -77 117 -132 172 -31 32 -77 81 -102 108 -154 175 -440 445 -470
445 -6 0 -16 9 -23 20 -7 11 -17 20 -23 20 -9 0 -41 23 -120 85 -27 21 -82 55
-128 80 -20 11 -87 50 -147 88 -60 37 -113 67 -117 67 -5 0 -24 11 -43 25 -19
14 -41 25 -51 25 -9 0 -27 8 -40 19 -13 10 -41 23 -61 30 -20 7 -41 18 -48 26
-6 7 -34 19 -63 26 -29 7 -72 23 -96 36 -24 12 -50 23 -58 23 -8 0 -27 7 -43
15 -16 8 -62 22 -102 30 -40 9 -82 22 -93 29 -11 7 -50 18 -87 25 -36 6 -81
17 -100 25 -18 7 -70 19 -116 25 -46 7 -100 18 -120 25 -20 7 -73 17 -117 21
-44 4 -127 13 -185 21 -105 14 -445 25 -550 18z m475 -1747 c188 -59 331 -147
451 -277 83 -90 115 -143 180 -300 48 -115 60 -225 46 -443 -10 -169 -25 -226
-95 -367 -36 -73 -132 -200 -185 -244 -7 -6 -23 -20 -35 -31 -41 -37 -175
-123 -213 -135 -20 -7 -51 -21 -68 -31 -30 -17 -113 -36 -274 -61 -76 -12
-152 -6 -329 27 -102 19 -254 94 -356 176 -146 118 -231 243 -314 459 -28 74
-28 77 -28 295 0 216 1 222 28 300 16 44 51 126 79 183 44 90 63 116 147 201
130 132 268 210 441 249 52 12 104 23 115 26 11 3 90 3 175 2 132 -3 167 -7
235 -29z m-1337 -2369 c17 -18 41 -51 54 -74 49 -86 110 -192 149 -254 23 -36
47 -78 55 -95 7 -16 27 -52 44 -80 16 -27 36 -65 45 -82 8 -18 42 -78 75 -132
32 -55 68 -117 80 -138 12 -21 36 -63 55 -93 19 -30 44 -75 57 -100 14 -25 44
-81 68 -125 80 -144 110 -199 130 -240 11 -22 39 -69 61 -105 23 -36 47 -84
55 -108 14 -40 14 -45 -6 -76 -11 -19 -26 -36 -33 -39 -7 -3 -440 -6 -961 -8
l-948 -4 -25 29 c-39 45 -29 99 38 215 30 51 68 119 86 150 17 31 44 76 58
101 14 25 38 66 53 92 36 63 110 190 182 313 32 55 66 114 75 130 9 17 28 51
43 76 15 26 39 69 55 95 15 27 41 72 57 99 26 44 64 111 162 283 15 26 35 65
46 87 52 111 129 145 190 83z m2270 -10 c17 -18 38 -49 47 -68 8 -19 20 -42
25 -50 6 -8 17 -31 26 -50 8 -19 31 -62 51 -95 19 -33 53 -94 76 -135 22 -41
45 -82 52 -90 6 -8 17 -29 24 -47 7 -18 20 -38 28 -44 8 -7 21 -26 28 -43 8
-17 28 -53 45 -81 16 -27 41 -70 55 -95 27 -49 37 -65 74 -125 14 -22 34 -56
44 -75 50 -91 60 -108 87 -150 17 -25 39 -63 50 -85 11 -22 45 -80 74 -130
116 -193 139 -239 140 -282 1 -32 -5 -48 -22 -65 l-23 -23 -938 -3 c-591 -1
-948 1 -964 7 -40 15 -58 60 -46 107 6 22 17 46 24 54 8 8 23 35 34 60 12 25
31 61 42 80 12 19 33 55 46 80 13 25 39 72 58 105 19 33 43 79 54 103 11 23
24 42 28 42 5 0 26 35 48 78 22 42 57 104 77 137 21 33 45 76 53 95 9 19 22
41 29 50 7 8 33 51 56 95 49 90 73 134 121 218 19 32 40 71 48 85 7 15 33 57
57 93 23 36 50 81 59 100 36 74 61 116 89 147 24 26 37 32 71 32 33 0 47 -6
73 -32z"/>
</g>
</svg>
